<svg width="37" height="37" viewBox="0 0 37 37" fill="none" xmlns="http://www.w3.org/2000/svg">
<g style="mix-blend-mode:hard-light">
<ellipse cx="18.4997" cy="18.4999" rx="18.4997" ry="18.4999" fill="url(#paint0_linear_1548_5533)"/>
<ellipse cx="18.4997" cy="18.4999" rx="18.4997" ry="18.4999" fill="#82E60A" fill-opacity="0.4"/>
</g>
<path d="M36.9994 18.4999C36.9994 13.5934 35.0503 8.88791 31.5809 5.4185C28.1116 1.94909 23.4061 3.70429e-07 18.4997 0C13.5933 -3.70429e-07 8.8878 1.94909 5.41843 5.4185C1.94907 8.88791 7.40849e-07 13.5934 0 18.4999H3.69994C3.69994 14.5747 5.25919 10.8103 8.03468 8.03479C10.8102 5.25926 14.5745 3.69999 18.4997 3.69999C22.4248 3.69999 26.1892 5.25926 28.9647 8.03479C31.7402 10.8103 33.2994 14.5747 33.2994 18.4999H36.9994Z" fill="#060B01" fill-opacity="0.53"/>
<path d="M0.000631622 18.5001C0.000632051 23.4066 1.9497 28.1121 5.41907 31.5815C8.88843 35.0509 13.5939 37 18.5003 37C23.4067 37 28.1122 35.0509 31.5816 31.5815C35.0509 28.1121 37 23.4066 37 18.5001L33.3001 18.5001C33.3001 22.4253 31.7408 26.1897 28.9653 28.9652C26.1898 31.7407 22.4255 33.3 18.5003 33.3C14.5752 33.3 10.8108 31.7407 8.03531 28.9652C5.25982 26.1897 3.70057 22.4253 3.70057 18.5001L0.000631622 18.5001Z" fill="#82E60A"/>
<path d="M3.69531 18.4993C15.9791 14.2074 9.61521 7.84339 19.087 16.8714C30.9268 31.6713 32.0615 18.1047 33.2948 18.4993" stroke="white"/>
<defs>
<linearGradient id="paint0_linear_1548_5533" x1="18.4997" y1="0" x2="18.4997" y2="36.9999" gradientUnits="userSpaceOnUse">
<stop stop-color="#82E60A"/>
<stop offset="1" stop-color="#427900"/>
</linearGradient>
</defs>
</svg>
