<svg width="17" height="18" viewBox="0 0 17 18" fill="none" xmlns="http://www.w3.org/2000/svg">
<path d="M15.3 3.6H1.7V1.8H15.3M15.3 12.6H1.7V7.2H15.3M15.3 0H1.7C0.7565 0 0 0.801 0 1.8V12.6C0 13.0774 0.179107 13.5352 0.497918 13.8728C0.81673 14.2104 1.24913 14.4 1.7 14.4H15.3C15.7509 14.4 16.1833 14.2104 16.5021 13.8728C16.8209 13.5352 17 13.0774 17 12.6V1.8C17 1.32261 16.8209 0.864773 16.5021 0.527208C16.1833 0.189642 15.7509 0 15.3 0ZM4.25 16.2H5.95V18H4.25V16.2ZM7.65 16.2H9.35V18H7.65V16.2ZM11.05 16.2H12.75V18H11.05V16.2Z" fill="white"/>
</svg>
